<?xml version="1.0" standalone="no"?>
<!DOCTYPE svg PUBLIC "-//W3C//DTD SVG 20010904//EN"
 "http://www.w3.org/TR/2001/REC-SVG-20010904/DTD/svg10.dtd">
<svg version="1.0" xmlns="http://www.w3.org/2000/svg"
 width="593.000000pt" height="593.000000pt" viewBox="0 0 593.000000 593.000000"
 preserveAspectRatio="xMidYMid meet">
<metadata>
Created by potrace 1.14, written by Peter Selinger 2001-2017
</metadata>
<g transform="translate(0.000000,593.000000) scale(0.100000,-0.100000)"
fill="#000000" stroke="none">
<path d="M4960 5910 c0 -5 -5 -10 -11 -10 -6 0 -30 -13 -54 -30 -24 -16 -48
-30 -53 -30 -6 0 -85 -74 -177 -165 -91 -91 -170 -165 -175 -165 -6 0 -9 -3
-8 -7 4 -11 -290 -303 -304 -303 -6 0 -9 -2 -6 -6 7 -6 -110 -124 -123 -124
-5 0 -8 -6 -6 -12 1 -7 -4 -12 -10 -11 -7 2 -13 -2 -13 -7 0 -6 -28 -37 -62
-70 l-62 -59 1 -338 c4 -766 4 -870 2 -879 -1 -5 -1 -11 0 -14 2 -5 4 -696 2
-717 -1 -6 -27 16 -58 50 -32 33 -79 83 -105 110 -27 26 -48 53 -48 58 0 6 -4
7 -10 4 -5 -3 -10 -2 -10 3 0 5 -45 55 -100 112 -55 56 -100 106 -100 111 0 5
-8 9 -17 9 -9 0 -14 2 -11 5 3 3 -27 38 -66 79 -39 40 -136 141 -216 225 -80
84 -182 191 -228 238 -45 47 -82 90 -82 95 0 5 -4 7 -9 3 -5 -3 -12 4 -16 15
-3 11 -13 20 -21 20 -8 0 -14 5 -14 11 0 15 -56 69 -71 69 -7 0 -9 3 -6 6 6 7
-69 89 -165 182 -26 25 -45 49 -42 54 3 4 -1 8 -8 8 -8 0 -27 18 -44 39 -16
22 -32 37 -36 34 -5 -2 -8 0 -8 5 0 5 -37 47 -82 95 -46 47 -150 156 -233 243
-82 86 -164 172 -182 189 -18 18 -29 35 -26 39 4 3 1 6 -7 6 -13 0 -70 59 -70
73 0 5 -4 5 -10 2 -5 -3 -10 1 -10 9 0 9 -8 16 -17 16 -9 0 -14 3 -11 6 3 3
-30 41 -73 85 -43 44 -79 81 -79 82 0 2 -98 105 -366 384 l-111 116 -39 -43
c-51 -56 -107 -116 -152 -164 l-37 -38 -1 -452 c0 -249 -4 -458 -8 -464 -4 -7
-4 -12 1 -12 4 0 8 -387 8 -860 0 -473 -4 -860 -8 -860 -5 0 -5 -4 -2 -10 9
-15 12 -149 3 -144 -4 3 -5 -2 -2 -10 9 -24 10 -206 1 -206 -5 0 -5 -5 -2 -10
10 -16 11 -310 2 -310 -5 0 -5 -4 -2 -10 5 -8 9 -500 4 -526 -1 -5 -1 -13 0
-19 1 -5 1 -57 1 -115 -1 -58 -1 -112 -1 -120 0 -8 1 -44 2 -80 0 -36 0 -69
-1 -75 -1 -5 -2 -14 -1 -20 1 -5 2 -55 2 -110 -2 -584 0 -1100 4 -1103 3 -3 0
-11 -5 -17 -7 -9 -5 -19 7 -34 14 -16 31 -21 78 -23 60 -2 60 -1 115 51 30 29
127 121 214 204 246 234 324 309 416 396 46 45 88 81 93 81 4 0 5 5 2 10 -3 6
-2 10 3 10 6 0 47 36 93 80 46 44 96 92 110 105 l26 25 -3 949 -3 950 27 -29
c15 -15 72 -77 127 -136 156 -168 236 -253 283 -301 23 -23 42 -45 42 -46 0
-2 26 -31 58 -64 31 -33 95 -101 142 -152 47 -50 113 -120 146 -156 34 -35 60
-66 57 -68 -2 -3 5 -8 16 -12 12 -3 21 -10 21 -14 0 -4 35 -44 78 -89 43 -45
77 -82 75 -82 -2 0 21 -25 52 -56 30 -31 55 -61 55 -67 0 -6 2 -8 5 -5 6 6
135 -122 135 -134 0 -5 7 -8 15 -8 8 0 15 -4 15 -8 0 -5 84 -94 188 -199 103
-105 255 -261 339 -346 84 -85 154 -152 157 -149 3 3 6 0 6 -6 0 -10 80 -93
480 -498 82 -83 146 -155 142 -159 -4 -5 -2 -5 5 -1 7 4 17 -2 23 -14 14 -27
19 -26 87 15 32 19 54 35 49 35 -4 0 6 14 24 30 18 17 29 30 26 30 -4 0 6 19
22 43 16 23 31 47 32 52 1 6 6 20 11 33 5 13 9 29 9 37 0 8 3 16 8 19 4 2 9
35 12 73 3 52 3 3472 0 5176 0 243 -1 258 -20 277 -22 22 -40 26 -40 10z"/>
</g>
</svg>
